<?xml version="1.0" encoding="UTF-8" standalone="no"?>
<svg
   version="1.1"
   id="Layer_1"
   x="0px"
   y="0px"
   width="121.31"
   height="122.876"
   viewBox="0 0 121.31 122.876"
   enable-background="new 0 0 121.31 122.876"
   xml:space="preserve"
   xmlns="http://www.w3.org/2000/svg"
   xmlns:svg="http://www.w3.org/2000/svg"><defs
     id="defs9" /><g
     id="g4"><path
       fill-rule="evenodd"
       clip-rule="evenodd"
       d="m 90.914,5.296 c 6.927,-7.034 18.188,-7.065 25.154,-0.068 6.961,6.995 6.991,18.369 0.068,25.397 l -30.393,30.827 30.425,30.855 c 6.866,6.978 6.773,18.28 -0.208,25.247 -6.983,6.964 -18.21,6.946 -25.074,-0.031 L 60.669,86.881 30.395,117.58 c -6.927,7.034 -18.188,7.065 -25.154,0.068 C -1.72,110.653 -1.751,99.279 5.173,92.251 L 35.566,61.424 5.142,30.568 C -1.725,23.59 -1.631,12.288 5.35,5.321 12.333,-1.642 23.56,-1.625 30.424,5.352 l 30.217,30.643 z"
       id="path2" /></g><path
     style="fill:#ff0000;stroke-width:0.129079"
     d="M 16.070367,122.73815 C 11.67473,122.18042 8.0752292,120.40466 5.1190617,117.33546 2.6779488,114.80101 1.2142105,112.04244 0.45647655,108.54833 -0.63851128,103.49906 0.71229162,97.800311 3.9620695,93.758983 4.3407038,93.288125 11.590913,85.862601 20.073645,77.257821 28.556377,68.653041 35.512697,61.545239 35.532137,61.462705 35.551575,61.380171 32.562551,58.263146 28.889862,54.535983 25.217173,50.80882 18.172902,43.662055 13.23593,38.654284 7.1663641,32.497679 4.0187919,29.211107 3.5159303,28.505042 0.16116938,23.794643 -0.74527804,17.953732 1.0338083,12.510895 2.5280711,7.9394314 6.0215871,3.9519382 10.29926,1.9353246 c 2.436877,-1.14881159 4.278985,-1.59533248 6.997359,-1.69613653 3.09002,-0.1145856 5.473383,0.39115013 8.26629,1.75405823 2.95003,1.4395821 2.115316,0.6634987 17.29249,16.0778487 5.032889,5.111538 11.100642,11.255974 13.483897,13.654302 L 60.672487,36.085993 76.264043,20.27233 C 87.260895,9.1188245 92.186122,4.2098619 92.977186,3.6143749 95.798932,1.490258 99.180575,0.27726298 102.74708,0.10991293 c 3.03738,-0.14252201 5.67992,0.42262089 8.51923,1.82195707 1.99393,0.9826931 3.48469,2.0769797 5.00291,3.6723642 2.44354,2.5677457 4.00859,5.6330948 4.68457,9.1753398 0.31204,1.635118 0.31746,4.638946 0.0114,6.324883 -0.57507,3.167975 -2.09454,6.328837 -4.15945,8.652661 -0.59494,0.669532 -13.86614,14.171344 -28.930403,29.433126 l -2.236965,2.266296 15.600848,15.821117 c 10.15803,10.301444 15.90191,16.220722 16.46377,16.966512 1.41146,1.873503 2.56452,4.432053 3.11948,6.921921 0.33101,1.48506 0.3979,4.82404 0.12904,6.4408 -0.97402,5.85713 -4.65292,10.79135 -9.94337,13.33626 -3.8878,1.87018 -8.34128,2.23982 -12.520685,1.03919 -1.557205,-0.44734 -4.022454,-1.6681 -5.362007,-2.65521 -1.297739,-0.9563 -2.412233,-2.06528 -19.358645,-19.26285 l -13.073538,-13.267307 -0.316958,0.29484 c -0.174327,0.162161 -7.137029,7.212294 -15.472672,15.666957 -8.335642,8.45467 -15.517662,15.66461 -15.960042,16.02208 -2.311083,1.86752 -4.946748,3.10712 -7.903688,3.71724 -1.005499,0.20747 -4.062519,0.35514 -4.969551,0.24006 z"
     id="path418" /></svg>
